<svg width="14" height="14" viewBox="0 0 14 14" fill="none" xmlns="http://www.w3.org/2000/svg">
<path fill-rule="evenodd" clip-rule="evenodd" d="M0.25 2.49977C0.25 1.25713 1.25736 0.249773 2.5 0.249773H6.25C6.66421 0.249773 7 0.58556 7 0.999774C7 1.41399 6.66421 1.74977 6.25 1.74977H2.5C2.08579 1.74977 1.75 2.08556 1.75 2.49977V11.4998C1.75 11.914 2.08579 12.2498 2.5 12.2498H11.5C11.9142 12.2498 12.25 11.914 12.25 11.4998V6.99977C12.25 6.58556 12.5858 6.24977 13 6.24977C13.4142 6.24977 13.75 6.58556 13.75 6.99977V11.4998C13.75 12.7424 12.7426 13.7498 11.5 13.7498H2.5C1.25736 13.7498 0.25 12.7424 0.25 11.4998V2.49977Z" fill="#586069"/>
<path d="M10.9857 0.560434C11.5715 -0.0253529 12.5213 -0.0253529 13.107 0.560434C13.6928 1.14622 13.6928 2.09597 13.107 2.68175L7.80375 7.98506C7.51085 8.27795 7.03598 8.27795 6.74309 7.98506L5.68243 6.9244C5.38953 6.6315 5.38953 6.15663 5.68243 5.86374L10.9857 0.560434Z" fill="#586069"/>
<path d="M4.41783 7.72827C4.25046 7.5609 3.96439 7.55775 3.89742 7.78477L3.40746 9.4456C3.25322 9.96843 3.69838 10.4136 4.22121 10.2594L5.88204 9.76939C6.10906 9.70242 6.10591 9.41635 5.93854 9.24898L4.41783 7.72827Z" fill="#586069"/>
</svg>
